<?xml version="1.0" encoding="UTF-8"?><svg id="b" xmlns="http://www.w3.org/2000/svg" viewBox="0 0 303.83 85.19"><g id="c"><circle cx="42.59" cy="42.59" r="42.59" style="fill:#ff6a10; stroke-width:0px;"/><path d="M46.85,75.82h-8.52v-17.55c-2.9,1.87-6.47,3.07-10.22,3.07-10.39,0-18.74-8.35-18.74-18.74s8.35-18.74,18.74-18.74c3.75,0,7.33,1.19,10.22,3.07V9.37h8.52v17.55c2.9-1.87,6.47-3.07,10.22-3.07,10.39,0,18.74,8.35,18.74,18.74s-8.35,18.74-18.74,18.74c-3.75,0-7.33-1.19-10.22-3.07v17.55ZM57.08,32.37c-5.62,0-10.22,4.6-10.22,10.22s4.6,10.22,10.22,10.22,10.22-4.6,10.22-10.22-4.6-10.22-10.22-10.22ZM28.11,32.37c-5.62,0-10.22,4.6-10.22,10.22s4.6,10.22,10.22,10.22,10.22-4.6,10.22-10.22-4.6-10.22-10.22-10.22Z" style="fill:#fff; stroke-width:0px;"/><path d="M116.23,23.52c-9.25,0-12.31,6.78-12.31,13.57v10.4c0,6.78,3.06,13.57,12.31,13.57s12.26-6.79,12.26-13.57v-10.4c0-6.79-3.06-13.57-12.26-13.57ZM125.18,47.49c0,5.73-2.26,10.5-8.94,10.5s-9-4.77-9-10.5v-10.4c0-5.73,2.26-10.5,9-10.5s8.94,4.78,8.94,10.5v10.4Z" style="fill:#fff; stroke-width:0px;"/><path d="M144.48,23.97h-9.65c-.91,0-1.66.75-1.66,1.66v33.77c0,.96.75,1.66,1.66,1.66.96,0,1.66-.7,1.66-1.66v-13.77h8.59c6.93,0,11.06-3.92,11.06-9.45v-2.56c0-4.67-3.06-9.65-11.66-9.65ZM152.83,36.13c0,3.52-2.46,6.43-7.84,6.43h-8.49v-15.48h7.84c6.63,0,8.49,3.62,8.49,6.58v2.46Z" style="fill:#fff; stroke-width:0px;"/><path d="M187.56,44.57c5.78-1.05,8.14-5.13,8.14-9.1v-2.26c0-4.92-3.32-9.25-11.61-9.25h-9.65c-.91,0-1.66.75-1.66,1.66v33.77c0,.96.75,1.66,1.66,1.66.96,0,1.66-.7,1.66-1.66v-14.32h7.84c3.32,4.97,6.28,10.05,8.95,15.03.3.7.85.96,1.41.96,1.11,0,2.21-1.11,1.56-2.41-2.46-4.67-5.23-9.4-8.29-14.07ZM176.1,41.96v-14.87h7.99c6.33,0,8.29,3.17,8.29,6.13v2.26c0,3.01-2.16,6.48-8.29,6.48h-7.99Z" style="fill:#fff; stroke-width:0px;"/><path d="M217.52,35.33c-.55,0-1.21.25-1.46,1.05l-6.99,20.4c-2.96-7.69-5.48-14.58-7.39-20.4-.25-.75-.86-1.05-1.46-1.05-.96,0-1.86.75-1.51,1.96,2.11,6.58,5.23,14.82,8.74,23.52-2.26,4.52-4.67,5.83-7.74,5.83-1,.05-1.51.86-1.51,1.61,0,.8.55,1.61,1.66,1.56,5.93-.15,9.25-3.97,12.26-12.61l6.93-19.75c.4-1.31-.5-2.11-1.56-2.11Z" style="fill:#fff; stroke-width:0px;"/><path d="M232.92,35.33c-3.37,0-5.83,1-7.49,2.76v-12.26c0-.9-.75-1.61-1.61-1.61-.9,0-1.61.7-1.61,1.61v33.47c0,.9.7,1.61,1.61,1.61.86,0,1.61-.7,1.61-1.61v-17.19c1.21-2.26,3.62-3.72,7.03-3.72,4.32,0,5.33,2.41,5.33,6.13v14.77c0,.9.75,1.61,1.61,1.61.91,0,1.61-.7,1.61-1.61v-14.98c0-5.02-1.71-8.99-8.09-8.99Z" style="fill:#fff; stroke-width:0px;"/><path d="M271.64,35.33c-3.82,0-6.48,1.31-8.14,3.57-1.11-2.21-3.17-3.57-6.84-3.57-3.47,0-5.93,1.05-7.64,2.91-.2-.6-.55-1.15-1.05-1.61-.7-.65-1.76-1-2.41-1-.9,0-1.61.45-1.61,1.46,0,.5.3.9.8,1.21,1.11.5,1.61,1.1,1.61,3.27v17.74c0,.9.75,1.61,1.61,1.61.91,0,1.61-.7,1.61-1.61v-17.49c1.15-2.06,3.32-3.47,6.63-3.47,4.12,0,5.18,2.41,5.18,6.18v14.77c0,.9.7,1.61,1.61,1.61s1.61-.7,1.61-1.61v-15.03c0-.7-.05-1.41-.15-2.11,1.1-2.21,3.27-3.82,6.68-3.82,4.17,0,5.23,2.41,5.23,6.18v14.77c0,.9.7,1.61,1.61,1.61.86,0,1.61-.7,1.61-1.61v-15.03c0-5.03-1.71-8.94-7.94-8.94Z" style="fill:#fff; stroke-width:0px;"/><path d="M289.11,29.09c1.16,0,2.06-.85,2.06-2.01s-.9-2.06-2.06-2.06-2.06.91-2.06,2.06.9,2.01,2.06,2.01Z" style="fill:#fff; stroke-width:0px;"/><path d="M296.65,29.09c1.16,0,2.06-.85,2.06-2.01s-.91-2.06-2.06-2.06-2.06.91-2.06,2.06.91,2.01,2.06,2.01Z" style="fill:#fff; stroke-width:0px;"/><path d="M303.03,58.19c-1.1-.45-1.46-1.1-1.46-3.27v-9.9c0-6.13-1.81-9.7-8.89-9.7-1.96,0-3.97.25-5.63.9-1.31.55-2.16,1.21-2.16,2.06,0,.75.6,1.36,1.36,1.36.6,0,1.11-.4,2.26-.91,1.01-.4,2.21-.65,4.02-.65,4.77,0,5.88,2.21,5.88,6.73v1.41h-6.33c-6.43,0-8.94,3.17-8.94,7.09v.4c0,3.87,2.36,7.19,8.69,7.19,2.21,0,5.23-.5,7.03-2.81.25.75.65,1.51,1.21,2.01.6.5,1.31.8,2.11.8.96,0,1.66-.5,1.66-1.46,0-.55-.25-1-.8-1.26ZM298.41,52.21c0,4.02-2.31,5.98-6.23,5.98-4.67,0-5.88-2.16-5.88-4.47v-.35c0-2.26,1.2-4.47,5.98-4.47h6.13v3.32Z" style="fill:#fff; stroke-width:0px;"/></g></svg>