<?xml version="1.0" encoding="UTF-8"?>
<svg id="Layer_1" xmlns="http://www.w3.org/2000/svg" version="1.1" xmlns:xlink="http://www.w3.org/1999/xlink" viewBox="0 0 708.49 170.08">
  <!-- Generator: Adobe Illustrator 29.8.3, SVG Export Plug-In . SVG Version: 2.1.1 Build 3)  -->
  <defs>
    <style>
      .st0 {
        fill: #fff;
      }

      .st1 {
        fill: none;
      }

      .st2 {
        fill: #f37021;
      }

      .st3 {
        clip-path: url(#clippath);
      }
    </style>
    <clipPath id="clippath">
      <rect class="st1" x="-15.36" y="-18.75" width="752.34" height="201.24"/>
    </clipPath>
  </defs>
  <g class="st3">
    <path class="st0" d="M233.17,118.65c-17.89,0-23.81-13.12-23.81-26.24v-20.12c0-13.12,5.93-26.24,23.81-26.24s23.71,13.12,23.71,26.24v20.12c0,13.12-5.93,26.24-23.71,26.24M250.47,72.29c0-11.08-4.37-20.31-17.3-20.31s-17.4,9.23-17.4,20.31v20.12c0,11.08,4.37,20.31,17.4,20.31s17.3-9.23,17.3-20.31v-20.12Z"/>
    <path class="st0" d="M289.02,88.81h-16.62v26.63c0,1.85-1.36,3.21-3.21,3.21-1.75,0-3.21-1.36-3.21-3.21V50.12c0-1.75,1.46-3.21,3.21-3.21h18.66c16.62,0,22.55,9.63,22.55,18.66v4.96c0,10.69-7.97,18.27-21.38,18.27M303.99,65.68c0-5.74-3.6-12.73-16.43-12.73h-15.16v29.94h16.43c10.4,0,15.16-5.64,15.16-12.44v-4.76Z"/>
    <path class="st0" d="M364.17,88.81h-16.62v26.63c0,1.85-1.36,3.21-3.21,3.21-1.75,0-3.2-1.36-3.2-3.21V50.12c0-1.75,1.46-3.21,3.2-3.21h18.66c16.62,0,22.55,9.63,22.55,18.66v4.96c0,10.69-7.97,18.27-21.39,18.27M379.14,65.68c0-5.74-3.6-12.73-16.43-12.73h-15.16v29.94h16.42c10.4,0,15.17-5.64,15.17-12.44v-4.76Z"/>
    <path class="st0" d="M417.9,118.65c-17.89,0-23.81-13.12-23.81-26.24v-20.12c0-13.12,5.93-26.24,23.81-26.24s23.72,13.12,23.72,26.24v20.12c0,13.12-5.93,26.24-23.72,26.24M435.2,72.29c0-11.08-4.37-20.31-17.3-20.31s-17.4,9.23-17.4,20.31v20.12c0,11.08,4.37,20.31,17.4,20.31s17.3-9.23,17.3-20.31v-20.12Z"/>
    <path class="st0" d="M497.46,118.65c-1.85,0-3.21-1.36-3.21-3.21v-29.45h-35.67v29.45c0,1.85-1.36,3.21-3.21,3.21-1.75,0-3.21-1.36-3.21-3.21V49.25c0-1.75,1.46-3.21,3.21-3.21,1.85,0,3.21,1.46,3.21,3.21v30.72h35.67v-30.72c0-1.75,1.36-3.21,3.21-3.21,1.65,0,3.21,1.46,3.21,3.21v66.19c0,1.85-1.56,3.21-3.21,3.21"/>
    <path class="st0" d="M519.62,118.65c-2.92,0-5.74-.29-8.36-.87-1.75-.39-2.52-1.65-2.52-3.01,0-1.65,1.07-3.11,3.01-3.11.87,0,1.46.29,3.4.58,1.55.2,2.82.29,4.47.29,11.76,0,16.23-5.74,16.23-19.44v-43.84c0-1.75,1.46-3.21,3.21-3.21s3.21,1.46,3.21,3.21v43.84c0,16.13-6.32,25.56-22.65,25.56"/>
    <path class="st0" d="M576.82,118.65c-17.89,0-23.81-13.12-23.81-26.24v-20.12c0-13.12,5.93-26.24,23.81-26.24s23.72,13.12,23.72,26.24v20.12c0,13.12-5.93,26.24-23.72,26.24M594.13,72.29c0-11.08-4.37-20.31-17.3-20.31s-17.4,9.23-17.4,20.31v20.12c0,11.08,4.37,20.31,17.4,20.31s17.3-9.23,17.3-20.31v-20.12Z"/>
    <path class="st0" d="M649.58,117.78h-34.89c-1.75,0-3.11-1.36-3.11-3.01V49.25c0-1.75,1.46-3.21,3.21-3.21,1.85,0,3.21,1.46,3.21,3.21v62.31h31.59c1.65,0,3.02,1.46,3.02,3.21,0,1.65-1.36,3.01-3.02,3.01"/>
    <path class="st0" d="M705.86,118.65c-1.27,0-2.63-.78-3.11-2.53-1.36-5.25-2.91-10.6-4.37-15.75h-30.33c-1.55,5.15-3.01,10.5-4.47,15.75-.39,1.75-1.65,2.53-2.92,2.53-1.85,0-3.69-1.46-3.11-3.89,6.02-23.33,13.22-44.32,21.67-65.03,1.26-3.11,2.63-3.6,4.08-3.6,1.36,0,2.72.49,4.09,3.6,8.36,20.7,15.55,41.7,21.67,65.03.49,2.34-1.36,3.89-3.2,3.89M683.21,56.64c-4.96,12.25-9.43,24.69-13.41,37.71h26.83c-4.08-13.03-8.55-25.47-13.41-37.71"/>
    <path class="st2" d="M88.53.56c45.4,0,82.21,36.8,82.21,82.21s-36.8,82.2-82.21,82.2S6.32,128.17,6.32,82.77,43.12.56,88.53.56"/>
    <path class="st0" d="M96.75,146.89h-16.44v-33.87c-5.59,3.62-12.49,5.92-19.73,5.92-20.06,0-36.17-16.11-36.17-36.17s16.11-36.17,36.17-36.17c7.23,0,14.14,2.3,19.73,5.92V18.65h16.44v33.87c5.59-3.62,12.49-5.92,19.73-5.92,20.06,0,36.17,16.11,36.17,36.17s-16.11,36.17-36.17,36.17c-7.23,0-14.14-2.3-19.73-5.92v33.87ZM116.47,63.04c-10.85,0-19.73,8.88-19.73,19.73s8.88,19.73,19.73,19.73,19.73-8.88,19.73-19.73-8.88-19.73-19.73-19.73M60.58,63.04c-10.85,0-19.73,8.88-19.73,19.73s8.88,19.73,19.73,19.73,19.73-8.88,19.73-19.73-8.88-19.73-19.73-19.73"/>
  </g>
</svg>