<?xml version="1.0" encoding="UTF-8" standalone="no"?>
<svg
   xmlns:dc="http://purl.org/dc/elements/1.1/"
   xmlns:cc="http://creativecommons.org/ns#"
   xmlns:rdf="http://www.w3.org/1999/02/22-rdf-syntax-ns#"
   xmlns:svg="http://www.w3.org/2000/svg"
   xmlns="http://www.w3.org/2000/svg"
   xmlns:xlink="http://www.w3.org/1999/xlink"
   xmlns:sodipodi="http://sodipodi.sourceforge.net/DTD/sodipodi-0.dtd"
   xmlns:inkscape="http://www.inkscape.org/namespaces/inkscape"
   width="297mm"
   height="297mm"
   viewBox="-103 -103 400 400"
   version="1.1"
   id="svg8"
   inkscape:version="1.0.1 (3bc2e813f5, 2020-09-07)"
   sodipodi:docname="OTiT_T_logo.svg">
  <defs
     id="defs2" />
  <sodipodi:namedview
     id="base"
     pagecolor="#ffffff"
     bordercolor="#666666"
     borderopacity="1.0"
     inkscape:pageopacity="0.0"
     inkscape:pageshadow="2"
     inkscape:zoom="0.7"
     inkscape:cx="369.33979"
     inkscape:cy="501.69532"
     inkscape:document-units="mm"
     inkscape:current-layer="layer2"
     inkscape:document-rotation="0"
     showgrid="false"
     inkscape:window-width="2310"
     inkscape:window-height="1236"
     inkscape:window-x="26"
     inkscape:window-y="26"
     inkscape:window-maximized="0" />
  <metadata
     id="metadata5">
    <rdf:RDF>
      <cc:Work
         rdf:about="">
        <dc:format>image/svg+xml</dc:format>
        <dc:type
           rdf:resource="http://purl.org/dc/dcmitype/StillImage" />
        <dc:title></dc:title>
      </cc:Work>
    </rdf:RDF>
  </metadata>
  <g
     inkscape:groupmode="layer"
     id="layer2"
     inkscape:label="Taso 2"
     style="display:inline">
      <!-- path style="fill:rgb(212,175,55,0.025)" -->
    <path

       style="fill:rgb(255,255,255,0.1)"
       d="m 93.382889,230.65964 0.0413,-61.97937 -41.226559,1e-5 -41.226559,2e-5 0.04012,-11.24333 c 0.022,-6.18385 0.04022,-11.40656 0.04033,-11.60603 l 2.27e-4,-0.36269 h 41.187348 41.187359 l -0.08746,-2.53882 C 92.89891,130.1549 91.95102,121.17328 89.942429,110.74548 81.784879,68.394703 58.830217,37.282489 28.944371,28.070083 23.872753,26.506739 18.938933,25.697981 13.066693,25.467394 c -1.152539,-0.04526 -2.095532,-0.08384 -2.095532,-0.08572 0,-0.0018 0.01822,-5.208022 0.04055,-11.569179 0.02232,-6.3611601 0.04044,-11.7290141 0.04033,-11.9285683 l -2.16e-4,-0.3628254 93.936215,0.04044 93.93621,0.04044 0.0413,11.9284077 0.0413,11.928406 -41.18628,-0.0418 -41.18626,-0.0418 v 60.046219 60.046206 l 41.13768,0.0407 41.13768,0.0406 0.0879,0.37181 c 0.0483,0.20447 0.0688,5.40296 0.0454,11.55217 l -0.0425,11.18036 -2.85906,0.0179 c -3.39058,0.0212 -5.0613,0.26712 -10.42477,1.53442 -6.1674,1.45727 -13.27766,4.2388 -19.10512,7.4739 -19.703,10.9381 -33.91997,30.68994 -42.31102,58.78328 -4.59353,15.37927 -7.11104,32.51202 -7.59733,51.70321 l -0.11334,4.47317 H 104.96581 93.341737 Z m 24.469351,27.56429 c 0.58981,-3.58021 1.54994,-8.54319 2.24527,-11.60602 0.6337,-2.79132 2.21953,-8.93167 2.49144,-9.64681 0.11415,-0.30026 0.16838,-11.27004 0.16991,-34.36593 l 0.002,-33.9249 h -3.06343 -3.06344 l 0.0154,48.80169 0.0154,48.80171 0.38113,-2.74032 c 0.20962,-1.50717 0.57233,-3.9009 0.80602,-5.31942 z m 9.30293,-34.57626 c 0.58487,-1.46285 1.57606,-3.81703 2.20259,-5.23153 l 1.13919,-2.57179 V 192.2623 168.68027 h -3.14329 -3.14332 l 0.009,31.47327 0.009,31.47326 0.93217,-2.65971 c 0.5127,-1.46284 1.41074,-3.85658 1.99562,-5.31942 z m 8.29961,-16.92545 c 0.49662,-0.84225 1.47025,-2.39687 2.16363,-3.4547 l 1.26066,-1.92337 v -16.33193 -16.33195 h -3.38509 -3.38509 l 0.001,21.96279 0.001,21.96277 1.21996,-2.17613 c 0.67099,-1.19687 1.62631,-2.86524 2.12295,-3.70748 z m 6.41623,-9.4299 c 0.61182,-0.7979 2.00239,-2.48546 3.09011,-3.75016 l 1.97769,-2.29938 v -11.28127 -11.28124 h -3.3045 -3.30448 v 15.26745 c 0,12.71415 0.0358,15.22797 0.21437,15.03141 0.11791,-0.12984 0.71496,-0.88888 1.32681,-1.68681 z m 12.28377,-12.81496 1.30615,-1.04778 0.0108,-7.37465 0.0108,-7.37466 h -3.54628 -3.54628 v 10.57915 10.57911 l 2.22953,-2.1567 c 1.22625,-1.18619 2.8173,-2.6282 3.53569,-3.20447 z m 6.32438,-4.76494 c 0.93091,-0.63205 2.0371,-1.34868 2.45823,-1.59252 l 0.76567,-0.44335 v -4.49814 -4.49814 h -3.30451 -3.30447 v 6.70471 6.70469 l 0.84627,-0.61404 c 0.46544,-0.33773 1.6079,-1.13118 2.53881,-1.76321 z m 8.26639,-4.8182 3.17844,-1.60403 v -2.30496 -2.30496 h -3.3045 -3.30448 v 3.96269 c 0,2.1795 0.0567,3.93855 0.12604,3.90898 0.0693,-0.0296 1.55634,-0.77552 3.3045,-1.65772 z m 7.26932,-3.21545 c 1.25196,-0.47861 2.80221,-1.03692 3.44496,-1.2407 l 1.16868,-0.37051 v -0.69363 -0.69366 h -3.54629 -3.54628 v 1.93434 c 0,1.06388 0.0456,1.93434 0.10126,1.93434 0.0557,0 1.12565,-0.3916 2.37762,-0.87018 z m 8.30157,-2.68457 1.0673,-0.28483 -1.57164,-0.0146 -1.57165,-0.0146 v 0.4752 c 0,0.46234 0.0137,0.47045 0.50435,0.29937 0.2774,-0.0967 0.98464,-0.30399 1.57164,-0.46065 z M 93.422175,73.978387 V 25.378186 h -3.304483 -3.304504 v 33.503262 c 0,33.343022 0.0022,33.507814 0.329993,34.455369 0.964238,2.782037 2.966941,10.603563 3.958452,15.459633 0.686752,3.36348 1.750042,9.7108 2.01848,12.04931 0.109405,0.95307 0.22212,1.73284 0.250493,1.73284 0.02836,0 0.05155,-21.8701 0.05155,-48.600213 z M 85.201246,56.32757 V 25.378186 H 82.057942 78.914649 V 49.062829 72.74747 l 0.626556,1.260238 c 1.520665,3.058625 3.90258,8.634677 5.031264,11.778191 0.294449,0.820082 0.556384,1.491058 0.582072,1.491058 0.02567,0 0.04669,-13.927227 0.04669,-30.949387 z M 77.463898,47.542459 V 25.378186 h -3.304494 -3.304483 v 16.782229 16.782231 l 1.824873,2.843223 c 1.003697,1.563776 2.472577,3.985002 3.264194,5.380508 0.791628,1.395505 1.457448,2.537972 1.47961,2.538816 0.02222,8.56e-4 0.04033,-9.972386 0.04033,-22.162734 z M 69.242969,41.014072 V 25.378186 h -3.304494 -3.304494 v 11.666878 c 0,10.633434 0.02351,11.686381 0.265311,11.887061 0.459887,0.381676 3.629515,4.196084 4.973526,5.985274 0.709248,0.944185 1.307689,1.720269 1.329851,1.724629 0.02221,0.0043 0.04033,-7.028217 0.04033,-15.627956 z M 61.02204,36.097634 V 25.378186 h -3.304494 -3.304493 v 7.628139 7.628142 l 1.329861,1.147802 c 0.731421,0.631293 2.200311,2.020681 3.264194,3.087523 1.063883,1.066845 1.952471,1.941422 1.974632,1.943505 0.02222,0.002 0.04033,-4.819967 0.04033,-10.715663 z m -8.059739,-3.707478 v -7.01197 h -3.546284 -3.546284 l 0.0054,4.473152 0.0054,4.473153 1.910197,1.270793 c 1.050608,0.698934 2.626035,1.837805 3.500948,2.530823 0.874924,0.693016 1.6089,1.263629 1.631061,1.268026 0.02222,0.0044 0.04033,-3.147395 0.04033,-7.003977 z m -8.704509,-3.0627 v -3.94927 h -3.223894 -3.223893 v 2.231307 2.231307 l 2.233116,1.144419 c 1.2282,0.629431 2.660824,1.402327 3.183593,1.71755 0.522759,0.31522 0.968616,0.573318 0.990778,0.573543 0.02221,1.62e-4 0.04033,-1.776759 0.04033,-3.948856 z M 36.359254,27.312522 V 25.378186 H 33.13536 29.911467 v 0.708122 0.708123 l 1.298275,0.430631 c 0.952418,0.315907 4.602133,1.745636 5.109211,2.001465 0.02222,0.01118 0.04033,-0.85012 0.04033,-1.914005 z M 28.460715,25.86177 v -0.483584 l -1.813442,0.01352 -1.813442,0.01352 1.692542,0.445745 c 0.930904,0.245162 1.746947,0.456687 1.813442,0.470062 0.06654,0.01337 0.1209,-0.1933 0.1209,-0.459271 z"
       id="path861" />
  </g>
</svg>
